G04 mon50ccetmoi BLACKBOX V1.0 - PROTOTYPE*
%FSLAX46Y46*%
%MOMM*%
%ADD10C,0.2500*%
G01*
D10*X0000800000Y0003000000D02*X0005200000Y0003000000D01*
D10*X0003000000Y0000800000D02*X0003000000Y0005200000D01*
D10*X0054800000Y0003000000D02*X0059200000Y0003000000D01*
D10*X0057000000Y0000800000D02*X0057000000Y0005200000D01*
D10*X0000800000Y0037000000D02*X0005200000Y0037000000D01*
D10*X0003000000Y0034800000D02*X0003000000Y0039200000D01*
D10*X0054800000Y0037000000D02*X0059200000Y0037000000D01*
D10*X0057000000Y0034800000D02*X0057000000Y0039200000D01*
D10*X0006350000Y0002750000D02*X0011650000Y0002750000D01*
D10*X0011650000Y0002750000D02*X0011650000Y0023250000D01*
D10*X0011650000Y0023250000D02*X0006350000Y0023250000D01*
D10*X0006350000Y0023250000D02*X0006350000Y0002750000D01*
D10*X0025850000Y0005750000D02*X0031150000Y0005750000D01*
D10*X0031150000Y0005750000D02*X0031150000Y0018250000D01*
D10*X0031150000Y0018250000D02*X0025850000Y0018250000D01*
D10*X0025850000Y0018250000D02*X0025850000Y0005750000D01*
D10*X0041350000Y0017750000D02*X0046650000Y0017750000D01*
D10*X0046650000Y0017750000D02*X0046650000Y0026250000D01*
D10*X0046650000Y0026250000D02*X0041350000Y0026250000D01*
D10*X0041350000Y0026250000D02*X0041350000Y0017750000D01*
D10*X0006850000Y0023250000D02*X0012150000Y0023250000D01*
D10*X0012150000Y0023250000D02*X0012150000Y0032750000D01*
D10*X0012150000Y0032750000D02*X0006850000Y0032750000D01*
D10*X0006850000Y0032750000D02*X0006850000Y0023250000D01*
D10*X0018350000Y0022750000D02*X0023650000Y0022750000D01*
D10*X0023650000Y0022750000D02*X0023650000Y0033250000D01*
D10*X0023650000Y0033250000D02*X0018350000Y0033250000D01*
D10*X0018350000Y0033250000D02*X0018350000Y0022750000D01*
D10*X0029350000Y0023750000D02*X0034650000Y0023750000D01*
D10*X0034650000Y0023750000D02*X0034650000Y0032250000D01*
D10*X0034650000Y0032250000D02*X0029350000Y0032250000D01*
D10*X0029350000Y0032250000D02*X0029350000Y0023750000D01*
D10*X0038350000Y0027250000D02*X0043650000Y0027250000D01*
D10*X0043650000Y0027250000D02*X0043650000Y0034750000D01*
D10*X0043650000Y0034750000D02*X0038350000Y0034750000D01*
D10*X0038350000Y0034750000D02*X0038350000Y0027250000D01*
D10*X0045850000Y0024750000D02*X0051150000Y0024750000D01*
D10*X0051150000Y0024750000D02*X0051150000Y0031250000D01*
D10*X0051150000Y0031250000D02*X0045850000Y0031250000D01*
D10*X0045850000Y0031250000D02*X0045850000Y0024750000D01*
D10*X0051330000Y0030600000D02*X0056670000Y0030600000D01*
D10*X0056670000Y0030600000D02*X0056670000Y0033400000D01*
D10*X0056670000Y0033400000D02*X0051330000Y0033400000D01*
D10*X0051330000Y0033400000D02*X0051330000Y0030600000D01*
D10*X0004350000Y0032750000D02*X0009650000Y0032750000D01*
D10*X0009650000Y0032750000D02*X0009650000Y0039250000D01*
D10*X0009650000Y0039250000D02*X0004350000Y0039250000D01*
D10*X0004350000Y0039250000D02*X0004350000Y0032750000D01*
D10*X0045330000Y0009600000D02*X0050670000Y0009600000D01*
D10*X0050670000Y0009600000D02*X0050670000Y0012400000D01*
D10*X0050670000Y0012400000D02*X0045330000Y0012400000D01*
D10*X0045330000Y0012400000D02*X0045330000Y0009600000D01*
D10*X0020000000Y0038200000D02*X0040000000Y0038200000D01*
D10*X0020000000Y0001800000D02*X0040000000Y0001800000D01*
M02*
